# xmcd
#
# Track frame offsets: 
#        150
#        13012
#        22762
#        38175
#        48075
#        61500
#        72675
#        81750
#        95137
#        106575
#        116400
#        135075
#        144937
#        159150
#
# Disc length: 2235 seconds
#
# Revision: 3
# Processed by: cddbd v1.5.2PL0 Copyright (c) Steve Scherf et al.
# Submitted via: ExactAudioCopy v0.95b4
#
DISCID=9e08b90e
DTITLE=Del McCoury and the Dixie Pals - High on a Mountain
DYEAR=1900
DGENRE=Country
TTITLE0=High on a Mountain
TTITLE1=Don't You Call My Name
TTITLE2=When I Stop Dreaming
TTITLE3=Big Rock in the Road
TTITLE4=Now She's Gone
TTITLE5=Rambler's Blues
TTITLE6=I'm Lonely Tonight
TTITLE7=It's in My Mind to Ramble
TTITLE8=Please Come Back Little Darling
TTITLE9=Take Me in Chains
TTITLE10=Who Could I Explain
TTITLE11=Big Ball in Boston
TTITLE12=Highway of Sorrow
TTITLE13=Fear Not
EXTD=
EXTT0=
EXTT1=
EXTT2=
EXTT3=
EXTT4=
EXTT5=
EXTT6=
EXTT7=
EXTT8=
EXTT9=
EXTT10=
EXTT11=
EXTT12=
EXTT13=
PLAYORDER=
